
<svg width="170" height="48" viewBox="0 0 170 48" fill="none" xmlns="http://www.w3.org/2000/svg">
<g clip-path="url(#clip0_3838_3183)">
<rect x="23.7795" y="1.14648" width="22.7794" height="22.7794" rx="11.3897" transform="rotate(90 23.7795 1.14648)" fill="#DAB212"/>
<path d="M0.999924 23.9268C13.5806 23.9268 23.7793 34.1254 23.7793 46.7061V46.7061V46.7061C11.1986 46.7061 0.999923 36.5075 0.999924 23.9268V23.9268V23.9268Z" fill="#DAB212"/>
<path d="M46.5586 23.9268V23.9268C33.9779 23.9268 23.7792 13.7281 23.7792 1.14738V1.14738V1.14738C36.3599 1.14738 46.5586 11.3461 46.5586 23.9268V23.9268Z" fill="#B49115"/>
<g filter="url(#filter0_d_3838_3183)">
<path d="M23.7793 23.9268H46.5587V46.7061H23.7793V23.9268Z" fill="#FDE68A"/>
</g>
<path d="M29.7126 42.9238L25.8165 29.3073H28.9613L31.2152 38.7684H31.3283L33.8149 29.3073H36.5076L38.9876 38.7883H39.1073L41.3612 29.3073H44.506L40.6099 42.9238H37.8041L35.2111 34.0212H35.1047L32.5184 42.9238H29.7126Z" fill="#474747"/>
<path opacity="0.15" d="M15.2826 13.4501C15.3362 13.0079 15.3764 12.5657 15.3764 12.1101C15.3764 11.6545 15.3362 11.2124 15.2826 10.7702H17.5472C17.6544 11.199 17.7214 11.6478 17.7214 12.1101C17.7214 12.5724 17.6544 13.0213 17.5472 13.4501M14.0967 17.1753C14.4987 16.4316 14.8069 15.6276 15.0213 14.7901H16.9978C16.3546 15.8956 15.3295 16.7532 14.0967 17.1753ZM13.9292 13.4501H10.7936C10.7266 13.0079 10.6864 12.5657 10.6864 12.1101C10.6864 11.6545 10.7266 11.2057 10.7936 10.7702H13.9292C13.9895 11.2057 14.0364 11.6545 14.0364 12.1101C14.0364 12.5657 13.9895 13.0079 13.9292 13.4501ZM12.3614 17.4433C11.8053 16.6393 11.3564 15.7482 11.0817 14.7901H13.6411C13.3664 15.7482 12.9175 16.6393 12.3614 17.4433ZM9.68137 9.43015H7.72497C8.36147 8.31795 9.39327 7.46035 10.6194 7.04495C10.2174 7.78865 9.91587 8.59265 9.68137 9.43015ZM7.72497 14.7901H9.68137C9.91587 15.6276 10.2174 16.4316 10.6194 17.1753C9.39327 16.7532 8.36147 15.8956 7.72497 14.7901ZM7.17558 13.4501C7.06838 13.0213 7.00138 12.5724 7.00138 12.1101C7.00138 11.6478 7.06838 11.199 7.17558 10.7702H9.44017C9.38657 11.2124 9.34637 11.6545 9.34637 12.1101C9.34637 12.5657 9.38657 13.0079 9.44017 13.4501M12.3614 6.77025C12.9175 7.57425 13.3664 8.47205 13.6411 9.43015H11.0817C11.3564 8.47205 11.8053 7.57425 12.3614 6.77025ZM16.9978 9.43015H15.0213C14.8069 8.59265 14.4987 7.78865 14.0967 7.04495C15.3295 7.46705 16.3546 8.31795 16.9978 9.43015ZM12.3614 5.41016C8.65627 5.41016 5.66138 8.42515 5.66138 12.1101C5.66138 13.8871 6.36727 15.5913 7.62376 16.8478C8.24591 17.4699 8.98451 17.9634 9.79739 18.3001C10.6103 18.6368 11.4815 18.8101 12.3614 18.8101C14.1383 18.8101 15.8425 18.1043 17.099 16.8478C18.3555 15.5913 19.0614 13.8871 19.0614 12.1101C19.0614 11.2303 18.8881 10.3591 18.5514 9.54617C18.2147 8.73329 17.7211 7.99469 17.099 7.37254C16.4768 6.75039 15.7382 6.25687 14.9253 5.92016C14.1125 5.58346 13.2412 5.41016 12.3614 5.41016Z" fill="white"/>
<path d="M68.6309 13.3675C68.4427 12.7133 68.1783 12.1352 67.8378 11.6333C67.4972 11.1225 67.0805 10.6923 66.5875 10.3428C66.1036 9.98427 65.5479 9.71092 64.9206 9.52272C64.3022 9.33451 63.6166 9.24041 62.8637 9.24041C61.4567 9.24041 60.2199 9.58993 59.1534 10.289C58.0958 10.988 57.2713 12.0053 56.6798 13.3406C56.0883 14.667 55.7925 16.2892 55.7925 18.2071C55.7925 20.125 56.0838 21.7562 56.6663 23.1005C57.2489 24.4448 58.0734 25.471 59.1399 26.179C60.2064 26.8781 61.4656 27.2276 62.9175 27.2276C64.2349 27.2276 65.3597 26.9946 66.2918 26.5286C67.2328 26.0536 67.9498 25.3859 68.4427 24.5255C68.9446 23.6651 69.1955 22.6479 69.1955 21.4739L70.3786 21.6486H63.2805V17.2661H74.8014V20.7345C74.8014 23.1543 74.2906 25.2335 73.2689 26.9722C72.2472 28.7019 70.8401 30.0373 69.0477 30.9783C67.2552 31.9104 65.2029 32.3764 62.8906 32.3764C60.3095 32.3764 58.042 31.8073 56.0883 30.6691C54.1345 29.5219 52.6109 27.8953 51.5175 25.7892C50.4331 23.6741 49.8909 21.1647 49.8909 18.2609C49.8909 16.0293 50.2135 14.0397 50.8588 12.292C51.5131 10.5354 52.4272 9.04772 53.6013 7.82885C54.7753 6.60999 56.142 5.6824 57.7015 5.04608C59.2609 4.40976 60.9503 4.0916 62.7696 4.0916C64.3291 4.0916 65.7809 4.32014 67.1253 4.77721C68.4696 5.22532 69.6616 5.86164 70.7012 6.68617C71.7498 7.51069 72.6057 8.49206 73.2689 9.63026C73.9321 10.7595 74.3578 12.0053 74.546 13.3675H68.6309ZM76.9423 9.26729V4.46801H99.554V9.26729H91.125V32H85.3713V9.26729H76.9423ZM109.475 32L101.597 4.46801H107.956L112.513 23.5979H112.742L117.77 4.46801H123.214L128.229 23.6382H128.471L133.028 4.46801H139.387L131.509 32H125.836L120.593 13.9994H120.378L115.148 32H109.475ZM144.475 32H138.237L147.742 4.46801H155.243L164.734 32H158.496L151.6 10.7595H151.385L144.475 32ZM144.085 21.1781H158.819V25.722H144.085V21.1781Z" fill="#8B8B8B"/>
<path d="M52.5269 45.0205L50.376 37.1542H51.3439L52.9878 43.5609H53.0646L54.7393 37.1542H55.8148L57.4894 43.5609H57.5662L59.2102 37.1542H60.1781L58.0272 45.0205H57.0439L55.3078 38.7521H55.2463L53.5102 45.0205H52.5269ZM63.1664 45.1434C62.5979 45.1434 62.1075 45.0179 61.6953 44.767C61.2856 44.5135 60.9693 44.1601 60.7465 43.7069C60.5263 43.2511 60.4162 42.7211 60.4162 42.1167C60.4162 41.5124 60.5263 40.9798 60.7465 40.5189C60.9693 40.0554 61.2792 39.6944 61.6761 39.4358C62.0755 39.1746 62.5416 39.044 63.0742 39.044C63.3814 39.044 63.6849 39.0952 63.9845 39.1976C64.2841 39.3 64.5568 39.4665 64.8026 39.6969C65.0484 39.9248 65.2443 40.227 65.3903 40.6034C65.5362 40.9798 65.6092 41.4433 65.6092 41.9938V42.3779H61.0615V41.5944H64.6874C64.6874 41.2615 64.6208 40.9645 64.4876 40.7033C64.357 40.4421 64.1701 40.236 63.9269 40.0849C63.6862 39.9338 63.4019 39.8583 63.0742 39.8583C62.7131 39.8583 62.4007 39.9479 62.137 40.1271C61.8758 40.3038 61.6748 40.5343 61.5339 40.8185C61.3931 41.1027 61.3227 41.4074 61.3227 41.7326V42.255C61.3227 42.7006 61.3995 43.0783 61.5531 43.3881C61.7093 43.6954 61.9257 43.9297 62.2023 44.091C62.4788 44.2498 62.8002 44.3291 63.1664 44.3291C63.4045 44.3291 63.6196 44.2958 63.8116 44.2293C64.0062 44.1601 64.174 44.0577 64.3148 43.922C64.4556 43.7837 64.5645 43.6122 64.6413 43.4073L65.517 43.6531C65.4248 43.9502 65.2699 44.2113 65.0523 44.4367C64.8346 44.6595 64.5657 44.8336 64.2457 44.9591C63.9256 45.082 63.5658 45.1434 63.1664 45.1434ZM67.111 45.0205V37.1542H68.0175V40.058H68.0943C68.1609 39.9556 68.2531 39.825 68.3708 39.6662C68.4912 39.5049 68.6628 39.3615 68.8855 39.236C69.1109 39.108 69.4156 39.044 69.7997 39.044C70.2964 39.044 70.7343 39.1682 71.1133 39.4166C71.4923 39.6649 71.788 40.017 72.0006 40.4728C72.2131 40.9286 72.3194 41.4663 72.3194 42.086C72.3194 42.7108 72.2131 43.2524 72.0006 43.7107C71.788 44.1665 71.4935 44.5199 71.1171 44.7708C70.7407 45.0192 70.3067 45.1434 69.815 45.1434C69.4361 45.1434 69.1326 45.0807 68.9047 44.9552C68.6768 44.8272 68.5014 44.6825 68.3785 44.5212C68.2556 44.3573 68.1609 44.2216 68.0943 44.114H67.9868V45.0205H67.111ZM68.0021 42.0707C68.0021 42.5162 68.0674 42.9093 68.198 43.2498C68.3286 43.5878 68.5194 43.8529 68.7703 44.0449C69.0212 44.2344 69.3285 44.3291 69.6921 44.3291C70.0711 44.3291 70.3874 44.2293 70.6409 44.0295C70.8969 43.8273 71.089 43.5558 71.217 43.2153C71.3476 42.8721 71.4129 42.4906 71.4129 42.0707C71.4129 41.6558 71.3489 41.282 71.2208 40.9491C71.0954 40.6136 70.9046 40.3486 70.6485 40.154C70.395 39.9568 70.0762 39.8583 69.6921 39.8583C69.3234 39.8583 69.0136 39.9517 68.7626 40.1387C68.5117 40.323 68.3222 40.5816 68.1942 40.9145C68.0661 41.2448 68.0021 41.6302 68.0021 42.0707ZM77.1935 45.0205H76.1949L79.0833 37.1542H80.0666L82.955 45.0205H81.9563L79.6056 38.3987H79.5442L77.1935 45.0205ZM77.5623 41.9477H81.5876V42.7928H77.5623V41.9477ZM86.2851 45.1434C85.7934 45.1434 85.3594 45.0192 84.983 44.7708C84.6066 44.5199 84.3121 44.1665 84.0996 43.7107C83.887 43.2524 83.7808 42.7108 83.7808 42.086C83.7808 41.4663 83.887 40.9286 84.0996 40.4728C84.3121 40.017 84.6079 39.6649 84.9868 39.4166C85.3658 39.1682 85.8037 39.044 86.3004 39.044C86.6845 39.044 86.988 39.108 87.2107 39.236C87.4361 39.3615 87.6076 39.5049 87.7254 39.6662C87.8458 39.825 87.9392 39.9556 88.0058 40.058H88.0826V37.1542H88.9891V45.0205H88.1134V44.114H88.0058C87.9392 44.2216 87.8445 44.3573 87.7216 44.5212C87.5987 44.6825 87.4233 44.8272 87.1954 44.9552C86.9675 45.0807 86.664 45.1434 86.2851 45.1434ZM86.408 44.3291C86.7716 44.3291 87.0789 44.2344 87.3298 44.0449C87.5808 43.8529 87.7715 43.5878 87.9021 43.2498C88.0327 42.9093 88.098 42.5162 88.098 42.0707C88.098 41.6302 88.034 41.2448 87.906 40.9145C87.7779 40.5816 87.5884 40.323 87.3375 40.1387C87.0866 39.9517 86.7767 39.8583 86.408 39.8583C86.0239 39.8583 85.7038 39.9568 85.4477 40.154C85.1942 40.3486 85.0035 40.6136 84.8754 40.9491C84.75 41.282 84.6872 41.6558 84.6872 42.0707C84.6872 42.4906 84.7512 42.8721 84.8793 43.2153C85.0099 43.5558 85.2019 43.8273 85.4554 44.0295C85.7115 44.2293 86.029 44.3291 86.408 44.3291ZM90.7751 45.0205V39.1208H91.6509V40.0426H91.7277C91.8506 39.7277 92.0491 39.4831 92.3231 39.309C92.597 39.1323 92.9261 39.044 93.3102 39.044C93.6994 39.044 94.0233 39.1323 94.2819 39.309C94.5431 39.4831 94.7467 39.7277 94.8927 40.0426H94.9541C95.1052 39.7379 95.3318 39.4959 95.634 39.3167C95.9361 39.1349 96.2984 39.044 96.721 39.044C97.2484 39.044 97.6799 39.2091 98.0154 39.5395C98.3508 39.8672 98.5185 40.3781 98.5185 41.072V45.0205H97.6121V41.072C97.6121 40.6367 97.493 40.3256 97.2548 40.1387C97.0167 39.9517 96.7363 39.8583 96.4137 39.8583C95.9989 39.8583 95.6775 39.9837 95.4496 40.2347C95.2217 40.4831 95.1077 40.798 95.1077 41.1796V45.0205H94.1859V40.9798C94.1859 40.6444 94.0771 40.3742 93.8594 40.1694C93.6418 39.962 93.3614 39.8583 93.0183 39.8583C92.7827 39.8583 92.5625 39.921 92.3576 40.0465C92.1553 40.1719 91.9915 40.3461 91.866 40.5688C91.7431 40.7891 91.6816 41.0438 91.6816 41.3332V45.0205H90.7751ZM100.176 45.0205V39.1208H101.082V45.0205H100.176ZM100.637 38.1375C100.46 38.1375 100.308 38.0773 100.18 37.957C100.054 37.8366 99.9915 37.692 99.9915 37.523C99.9915 37.354 100.054 37.2093 100.18 37.0889C100.308 36.9686 100.46 36.9084 100.637 36.9084C100.813 36.9084 100.965 36.9686 101.09 37.0889C101.218 37.2093 101.282 37.354 101.282 37.523C101.282 37.692 101.218 37.8366 101.09 37.957C100.965 38.0773 100.813 38.1375 100.637 38.1375ZM103.649 41.4715V45.0205H102.743V39.1208H103.618V40.0426H103.695C103.833 39.743 104.043 39.5023 104.325 39.3205C104.607 39.1362 104.97 39.044 105.416 39.044C105.815 39.044 106.165 39.1259 106.464 39.2898C106.764 39.4511 106.997 39.6969 107.164 40.0273C107.33 40.355 107.413 40.7698 107.413 41.2717V45.0205H106.507V41.3332C106.507 40.8697 106.386 40.5087 106.146 40.25C105.905 39.9889 105.575 39.8583 105.155 39.8583C104.865 39.8583 104.607 39.921 104.379 40.0465C104.154 40.1719 103.976 40.355 103.845 40.5957C103.714 40.8364 103.649 41.1283 103.649 41.4715ZM114.662 45.0205H112.235V37.1542H114.77C115.533 37.1542 116.186 37.3117 116.728 37.6267C117.271 37.9391 117.687 38.3885 117.977 38.9748C118.266 39.5587 118.411 40.2577 118.411 41.072C118.411 41.8914 118.265 42.5969 117.973 43.1884C117.681 43.7773 117.256 44.2306 116.698 44.5481C116.14 44.863 115.461 45.0205 114.662 45.0205ZM113.187 44.1755H114.601C115.251 44.1755 115.79 44.05 116.218 43.7991C116.645 43.5481 116.964 43.1909 117.174 42.7275C117.384 42.264 117.489 41.7122 117.489 41.072C117.489 40.437 117.385 39.8903 117.178 39.4319C116.97 38.971 116.661 38.6176 116.248 38.3718C115.836 38.1234 115.323 37.9992 114.708 37.9992H113.187V44.1755ZM121.622 45.1588C121.248 45.1588 120.909 45.0884 120.604 44.9475C120.299 44.8041 120.057 44.598 119.878 44.3291C119.699 44.0577 119.609 43.7299 119.609 43.3459C119.609 43.0078 119.676 42.7339 119.809 42.5239C119.942 42.3114 120.12 42.1449 120.343 42.0246C120.566 41.9042 120.811 41.8146 121.08 41.7557C121.352 41.6942 121.624 41.6456 121.898 41.6097C122.257 41.5636 122.548 41.5291 122.77 41.506C122.996 41.4804 123.16 41.4382 123.262 41.3793C123.367 41.3204 123.419 41.218 123.419 41.072V41.0413C123.419 40.6623 123.316 40.3678 123.108 40.1579C122.903 39.9479 122.592 39.8429 122.175 39.8429C121.742 39.8429 121.403 39.9376 121.157 40.1271C120.911 40.3166 120.738 40.5189 120.639 40.734L119.778 40.4267C119.932 40.0682 120.137 39.7891 120.393 39.5894C120.651 39.3871 120.933 39.2463 121.238 39.1669C121.545 39.0849 121.847 39.044 122.144 39.044C122.334 39.044 122.551 39.067 122.797 39.1131C123.046 39.1566 123.285 39.2475 123.515 39.3858C123.748 39.5241 123.942 39.7328 124.095 40.0119C124.249 40.291 124.326 40.6649 124.326 41.1335V45.0205H123.419V44.2216H123.373C123.312 44.3496 123.209 44.4866 123.066 44.6326C122.923 44.7785 122.732 44.9027 122.494 45.0051C122.256 45.1076 121.965 45.1588 121.622 45.1588ZM121.76 44.3445C122.119 44.3445 122.421 44.2741 122.667 44.1332C122.915 43.9924 123.102 43.8106 123.227 43.5878C123.355 43.3651 123.419 43.1308 123.419 42.8849V42.0553C123.381 42.1014 123.297 42.1436 123.166 42.182C123.038 42.2179 122.889 42.2499 122.72 42.2781C122.554 42.3037 122.391 42.3267 122.233 42.3472C122.076 42.3651 121.95 42.3805 121.852 42.3933C121.617 42.424 121.397 42.474 121.192 42.5431C120.989 42.6097 120.826 42.7108 120.7 42.8465C120.577 42.9797 120.516 43.1615 120.516 43.3919C120.516 43.7069 120.632 43.945 120.865 44.1064C121.101 44.2651 121.399 44.3445 121.76 44.3445ZM130.159 40.4421L129.345 40.6725C129.294 40.5368 129.218 40.405 129.118 40.2769C129.021 40.1463 128.888 40.0388 128.719 39.9543C128.55 39.8698 128.334 39.8275 128.07 39.8275C127.709 39.8275 127.408 39.9108 127.167 40.0772C126.929 40.2411 126.81 40.4498 126.81 40.7033C126.81 40.9286 126.892 41.1066 127.056 41.2372C127.22 41.3678 127.476 41.4766 127.824 41.5636L128.7 41.7787C129.227 41.9068 129.62 42.1027 129.879 42.3664C130.138 42.6276 130.267 42.9643 130.267 43.3766C130.267 43.7146 130.17 44.0167 129.975 44.283C129.783 44.5494 129.514 44.7593 129.168 44.913C128.823 45.0666 128.421 45.1434 127.962 45.1434C127.361 45.1434 126.863 45.0128 126.468 44.7516C126.074 44.4905 125.824 44.1089 125.719 43.607L126.58 43.3919C126.662 43.7095 126.816 43.9476 127.044 44.1064C127.275 44.2651 127.576 44.3445 127.947 44.3445C128.369 44.3445 128.705 44.2549 128.953 44.0756C129.204 43.8938 129.33 43.6762 129.33 43.4227C129.33 43.2178 129.258 43.0463 129.115 42.908C128.971 42.7671 128.751 42.6622 128.454 42.593L127.471 42.3626C126.93 42.2345 126.533 42.0361 126.28 41.7672C126.029 41.4958 125.904 41.1565 125.904 40.7494C125.904 40.4165 125.997 40.122 126.184 39.8659C126.373 39.6099 126.631 39.4089 126.956 39.2629C127.284 39.117 127.655 39.044 128.07 39.044C128.654 39.044 129.112 39.172 129.445 39.4281C129.78 39.6841 130.019 40.0221 130.159 40.4421ZM132.538 41.4715V45.0205H131.631V37.1542H132.538V40.0426H132.615C132.753 39.7379 132.96 39.4959 133.237 39.3167C133.516 39.1349 133.887 39.044 134.351 39.044C134.753 39.044 135.105 39.1246 135.407 39.286C135.709 39.4447 135.944 39.6893 136.11 40.0196C136.279 40.3473 136.363 40.7647 136.363 41.2717V45.0205H135.457V41.3332C135.457 40.8646 135.335 40.5023 135.092 40.2462C134.851 39.9876 134.517 39.8583 134.09 39.8583C133.793 39.8583 133.526 39.921 133.291 40.0465C133.058 40.1719 132.873 40.355 132.738 40.5957C132.604 40.8364 132.538 41.1283 132.538 41.4715ZM138.145 45.0205V37.1542H139.051V40.058H139.128C139.195 39.9556 139.287 39.825 139.405 39.6662C139.525 39.5049 139.696 39.3615 139.919 39.236C140.145 39.108 140.449 39.044 140.833 39.044C141.33 39.044 141.768 39.1682 142.147 39.4166C142.526 39.6649 142.822 40.017 143.034 40.4728C143.247 40.9286 143.353 41.4663 143.353 42.086C143.353 42.7108 143.247 43.2524 143.034 43.7107C142.822 44.1665 142.527 44.5199 142.151 44.7708C141.774 45.0192 141.34 45.1434 140.849 45.1434C140.47 45.1434 140.166 45.0807 139.938 44.9552C139.711 44.8272 139.535 44.6825 139.412 44.5212C139.289 44.3573 139.195 44.2216 139.128 44.114H139.02V45.0205H138.145ZM139.036 42.0707C139.036 42.5162 139.101 42.9093 139.232 43.2498C139.362 43.5878 139.553 43.8529 139.804 44.0449C140.055 44.2344 140.362 44.3291 140.726 44.3291C141.105 44.3291 141.421 44.2293 141.675 44.0295C141.931 43.8273 142.123 43.5558 142.251 43.2153C142.381 42.8721 142.447 42.4906 142.447 42.0707C142.447 41.6558 142.383 41.282 142.255 40.9491C142.129 40.6136 141.938 40.3486 141.682 40.154C141.429 39.9568 141.11 39.8583 140.726 39.8583C140.357 39.8583 140.047 39.9517 139.796 40.1387C139.545 40.323 139.356 40.5816 139.228 40.9145C139.1 41.2448 139.036 41.6302 139.036 42.0707ZM147.136 45.1434C146.604 45.1434 146.136 45.0167 145.734 44.7632C145.335 44.5097 145.023 44.155 144.797 43.6992C144.574 43.2434 144.463 42.7108 144.463 42.1014C144.463 41.4868 144.574 40.9504 144.797 40.492C145.023 40.0337 145.335 39.6777 145.734 39.4242C146.136 39.1707 146.604 39.044 147.136 39.044C147.669 39.044 148.135 39.1707 148.535 39.4242C148.937 39.6777 149.249 40.0337 149.472 40.492C149.697 40.9504 149.81 41.4868 149.81 42.1014C149.81 42.7108 149.697 43.2434 149.472 43.6992C149.249 44.155 148.937 44.5097 148.535 44.7632C148.135 45.0167 147.669 45.1434 147.136 45.1434ZM147.136 44.3291C147.541 44.3291 147.874 44.2254 148.135 44.018C148.396 43.8106 148.59 43.5379 148.715 43.1999C148.84 42.8619 148.903 42.4957 148.903 42.1014C148.903 41.707 148.84 41.3396 148.715 40.999C148.59 40.6585 148.396 40.3832 148.135 40.1732C147.874 39.9632 147.541 39.8583 147.136 39.8583C146.732 39.8583 146.399 39.9632 146.138 40.1732C145.877 40.3832 145.683 40.6585 145.558 40.999C145.432 41.3396 145.37 41.707 145.37 42.1014C145.37 42.4957 145.432 42.8619 145.558 43.1999C145.683 43.5379 145.877 43.8106 146.138 44.018C146.399 44.2254 146.732 44.3291 147.136 44.3291ZM152.93 45.1588C152.556 45.1588 152.216 45.0884 151.912 44.9475C151.607 44.8041 151.365 44.598 151.186 44.3291C151.006 44.0577 150.917 43.7299 150.917 43.3459C150.917 43.0078 150.983 42.7339 151.117 42.5239C151.25 42.3114 151.428 42.1449 151.65 42.0246C151.873 41.9042 152.119 41.8146 152.388 41.7557C152.659 41.6942 152.932 41.6456 153.206 41.6097C153.565 41.5636 153.855 41.5291 154.078 41.506C154.303 41.4804 154.467 41.4382 154.57 41.3793C154.675 41.3204 154.727 41.218 154.727 41.072V41.0413C154.727 40.6623 154.623 40.3678 154.416 40.1579C154.211 39.9479 153.9 39.8429 153.483 39.8429C153.05 39.8429 152.711 39.9376 152.465 40.1271C152.219 40.3166 152.046 40.5189 151.946 40.734L151.086 40.4267C151.239 40.0682 151.444 39.7891 151.7 39.5894C151.959 39.3871 152.241 39.2463 152.545 39.1669C152.853 39.0849 153.155 39.044 153.452 39.044C153.641 39.044 153.859 39.067 154.105 39.1131C154.353 39.1566 154.593 39.2475 154.823 39.3858C155.056 39.5241 155.249 39.7328 155.403 40.0119C155.557 40.291 155.634 40.6649 155.634 41.1335V45.0205H154.727V44.2216H154.681C154.62 44.3496 154.517 44.4866 154.374 44.6326C154.23 44.7785 154.04 44.9027 153.801 45.0051C153.563 45.1076 153.273 45.1588 152.93 45.1588ZM153.068 44.3445C153.426 44.3445 153.728 44.2741 153.974 44.1332C154.223 43.9924 154.41 43.8106 154.535 43.5878C154.663 43.3651 154.727 43.1308 154.727 42.8849V42.0553C154.689 42.1014 154.604 42.1436 154.474 42.182C154.346 42.2179 154.197 42.2499 154.028 42.2781C153.862 42.3037 153.699 42.3267 153.54 42.3472C153.384 42.3651 153.257 42.3805 153.16 42.3933C152.924 42.424 152.704 42.474 152.499 42.5431C152.297 42.6097 152.133 42.7108 152.008 42.8465C151.885 42.9797 151.823 43.1615 151.823 43.3919C151.823 43.7069 151.94 43.945 152.173 44.1064C152.408 44.2651 152.707 44.3445 153.068 44.3445ZM157.288 45.0205V39.1208H158.164V40.0119H158.225C158.333 39.72 158.527 39.4831 158.809 39.3013C159.091 39.1195 159.408 39.0286 159.762 39.0286C159.828 39.0286 159.911 39.0299 160.011 39.0325C160.111 39.035 160.187 39.0389 160.238 39.044V39.9658C160.207 39.9581 160.137 39.9466 160.027 39.9312C159.919 39.9133 159.805 39.9044 159.685 39.9044C159.398 39.9044 159.142 39.9645 158.917 40.0849C158.694 40.2027 158.517 40.3665 158.387 40.5765C158.259 40.7839 158.195 41.0208 158.195 41.2871V45.0205H157.288ZM163.361 45.1434C162.869 45.1434 162.435 45.0192 162.059 44.7708C161.682 44.5199 161.388 44.1665 161.175 43.7107C160.963 43.2524 160.856 42.7108 160.856 42.086C160.856 41.4663 160.963 40.9286 161.175 40.4728C161.388 40.017 161.683 39.6649 162.062 39.4166C162.441 39.1682 162.879 39.044 163.376 39.044C163.76 39.044 164.063 39.108 164.286 39.236C164.512 39.3615 164.683 39.5049 164.801 39.6662C164.921 39.825 165.015 39.9556 165.081 40.058H165.158V37.1542H166.065V45.0205H165.189V44.114H165.081C165.015 44.2216 164.92 44.3573 164.797 44.5212C164.674 44.6825 164.499 44.8272 164.271 44.9552C164.043 45.0807 163.74 45.1434 163.361 45.1434ZM163.484 44.3291C163.847 44.3291 164.154 44.2344 164.405 44.0449C164.656 43.8529 164.847 43.5878 164.978 43.2498C165.108 42.9093 165.174 42.5162 165.174 42.0707C165.174 41.6302 165.11 41.2448 164.981 40.9145C164.853 40.5816 164.664 40.323 164.413 40.1387C164.162 39.9517 163.852 39.8583 163.484 39.8583C163.099 39.8583 162.779 39.9568 162.523 40.154C162.27 40.3486 162.079 40.6136 161.951 40.9491C161.825 41.282 161.763 41.6558 161.763 42.0707C161.763 42.4906 161.827 42.8721 161.955 43.2153C162.085 43.5558 162.277 43.8273 162.531 44.0295C162.787 44.2293 163.105 44.3291 163.484 44.3291Z" fill="#979797"/>
<rect x="50.1455" y="35.0205" width="115.733" height="0.7" fill="#DAB212"/>
</g>
<defs>
<filter id="filter0_d_3838_3183" x="20.3468" y="20.4942" width="29.0202" height="29.0202" filterUnits="userSpaceOnUse" color-interpolation-filters="sRGB">
<feFlood flood-opacity="0" result="BackgroundImageFix"/>
<feColorMatrix in="SourceAlpha" type="matrix" values="0 0 0 0 0 0 0 0 0 0 0 0 0 0 0 0 0 0 127 0" result="hardAlpha"/>
<feOffset dx="-0.312046" dy="-0.312046"/>
<feGaussianBlur stdDeviation="1.56023"/>
<feComposite in2="hardAlpha" operator="out"/>
<feColorMatrix type="matrix" values="0 0 0 0 0 0 0 0 0 0 0 0 0 0 0 0 0 0 0.25 0"/>
<feBlend mode="normal" in2="BackgroundImageFix" result="effect1_dropShadow_3838_3183"/>
<feBlend mode="normal" in="SourceGraphic" in2="effect1_dropShadow_3838_3183" result="shape"/>
</filter>
<clipPath id="clip0_3838_3183">
<rect width="170" height="48" fill="white"/>
</clipPath>
</defs>
</svg>
